<svg width="56" height="56" viewBox="0 0 56 56" fill="none" xmlns="http://www.w3.org/2000/svg">
<rect width="56" height="56" rx="28" fill="#FF5C5C"/>
<path d="M41.6001 35.5113L30.6689 16.5276C30.3957 16.0625 30.0057 15.6769 29.5376 15.4089C29.0695 15.141 28.5395 15 28.0001 15C27.4607 15 26.9307 15.141 26.4626 15.4089C25.9945 15.6769 25.6045 16.0625 25.3314 16.5276L14.4001 35.5113C14.1373 35.9612 13.9988 36.4728 13.9988 36.9938C13.9988 37.5148 14.1373 38.0265 14.4001 38.4763C14.6698 38.9442 15.0591 39.332 15.5281 39.5997C15.9971 39.8675 16.5288 40.0057 17.0689 40.0001H38.9314C39.471 40.0052 40.0022 39.8669 40.4707 39.5991C40.9393 39.3314 41.3282 38.9439 41.5976 38.4763C41.8608 38.0267 41.9998 37.5152 42.0002 36.9942C42.0007 36.4732 41.8626 35.9614 41.6001 35.5113ZM39.8664 37.4751C39.7711 37.6376 39.6343 37.7719 39.47 37.8642C39.3057 37.9564 39.1198 38.0033 38.9314 38.0001H17.0689C16.8805 38.0033 16.6946 37.9564 16.5303 37.8642C16.366 37.7719 16.2292 37.6376 16.1339 37.4751C16.0476 37.3289 16.002 37.1623 16.002 36.9926C16.002 36.8228 16.0476 36.6562 16.1339 36.5101L27.0651 17.5263C27.1623 17.3645 27.2998 17.2307 27.4641 17.1377C27.6283 17.0448 27.8139 16.9959 28.0026 16.9959C28.1914 16.9959 28.3769 17.0448 28.5412 17.1377C28.7055 17.2307 28.8429 17.3645 28.9401 17.5263L39.8714 36.5101C39.9569 36.6567 40.0016 36.8235 40.0007 36.9933C39.9998 37.163 39.9534 37.3294 39.8664 37.4751ZM27.0001 30.0001V25.0001C27.0001 24.7349 27.1055 24.4805 27.293 24.293C27.4805 24.1054 27.7349 24.0001 28.0001 24.0001C28.2653 24.0001 28.5197 24.1054 28.7072 24.293C28.8948 24.4805 29.0001 24.7349 29.0001 25.0001V30.0001C29.0001 30.2653 28.8948 30.5197 28.7072 30.7072C28.5197 30.8947 28.2653 31.0001 28.0001 31.0001C27.7349 31.0001 27.4805 30.8947 27.293 30.7072C27.1055 30.5197 27.0001 30.2653 27.0001 30.0001ZM29.5001 34.5001C29.5001 34.7968 29.4121 35.0868 29.2473 35.3334C29.0825 35.5801 28.8482 35.7724 28.5741 35.8859C28.3001 35.9994 27.9985 36.0291 27.7075 35.9713C27.4165 35.9134 27.1492 35.7705 26.9395 35.5607C26.7297 35.351 26.5868 35.0837 26.5289 34.7927C26.4711 34.5017 26.5008 34.2001 26.6143 33.9261C26.7278 33.652 26.9201 33.4177 27.1668 33.2529C27.4134 33.0881 27.7034 33.0001 28.0001 33.0001C28.3979 33.0001 28.7795 33.1581 29.0608 33.4394C29.3421 33.7207 29.5001 34.1023 29.5001 34.5001Z" fill="white"/>
</svg>
