<svg width="56" height="56" viewBox="0 0 56 56" fill="none" xmlns="http://www.w3.org/2000/svg">
<rect width="56" height="56" rx="28" fill="#59C965"/>
<path d="M40.2325 24.8525C39.7612 24.36 39.2738 23.8525 39.09 23.4062C38.92 22.9975 38.91 22.32 38.9 21.6637C38.8813 20.4437 38.8612 19.0612 37.9 18.1C36.9387 17.1387 35.5562 17.1187 34.3363 17.1C33.68 17.09 33.0025 17.08 32.5938 16.91C32.1488 16.7262 31.64 16.2387 31.1475 15.7675C30.285 14.9387 29.305 14 28 14C26.695 14 25.7162 14.9387 24.8525 15.7675C24.36 16.2387 23.8525 16.7262 23.4062 16.91C23 17.08 22.32 17.09 21.6637 17.1C20.4437 17.1187 19.0612 17.1387 18.1 18.1C17.1387 19.0612 17.125 20.4437 17.1 21.6637C17.09 22.32 17.08 22.9975 16.91 23.4062C16.7262 23.8512 16.2387 24.36 15.7675 24.8525C14.9387 25.715 14 26.695 14 28C14 29.305 14.9387 30.2837 15.7675 31.1475C16.2387 31.64 16.7262 32.1475 16.91 32.5938C17.08 33.0025 17.09 33.68 17.1 34.3363C17.1187 35.5562 17.1387 36.9387 18.1 37.9C19.0612 38.8612 20.4437 38.8813 21.6637 38.9C22.32 38.91 22.9975 38.92 23.4062 39.09C23.8512 39.2738 24.36 39.7612 24.8525 40.2325C25.715 41.0613 26.695 42 28 42C29.305 42 30.2837 41.0613 31.1475 40.2325C31.64 39.7612 32.1475 39.2738 32.5938 39.09C33.0025 38.92 33.68 38.91 34.3363 38.9C35.5562 38.8813 36.9387 38.8612 37.9 37.9C38.8612 36.9387 38.8813 35.5562 38.9 34.3363C38.91 33.68 38.92 33.0025 39.09 32.5938C39.2738 32.1488 39.7612 31.64 40.2325 31.1475C41.0613 30.285 42 29.305 42 28C42 26.695 41.0613 25.7162 40.2325 24.8525ZM38.7887 29.7638C38.19 30.3888 37.57 31.035 37.2412 31.8288C36.9262 32.5913 36.9125 33.4625 36.9 34.3062C36.8875 35.1812 36.8738 36.0975 36.485 36.485C36.0963 36.8725 35.1862 36.8875 34.3062 36.9C33.4625 36.9125 32.5913 36.9262 31.8288 37.2412C31.035 37.57 30.3888 38.19 29.7638 38.7887C29.1388 39.3875 28.5 40 28 40C27.5 40 26.8562 39.385 26.2362 38.7887C25.6163 38.1925 24.965 37.57 24.1713 37.2412C23.4088 36.9262 22.5375 36.9125 21.6938 36.9C20.8188 36.8875 19.9025 36.8738 19.515 36.485C19.1275 36.0963 19.1125 35.1862 19.1 34.3062C19.0875 33.4625 19.0738 32.5913 18.7587 31.8288C18.43 31.035 17.81 30.3888 17.2112 29.7638C16.6125 29.1388 16 28.5 16 28C16 27.5 16.615 26.8562 17.2112 26.2362C17.8075 25.6163 18.43 24.965 18.7587 24.1713C19.0738 23.4088 19.0875 22.5375 19.1 21.6938C19.1125 20.8188 19.1262 19.9025 19.515 19.515C19.9037 19.1275 20.8138 19.1125 21.6938 19.1C22.5375 19.0875 23.4088 19.0738 24.1713 18.7587C24.965 18.43 25.6112 17.81 26.2362 17.2112C26.8612 16.6125 27.5 16 28 16C28.5 16 29.1438 16.615 29.7638 17.2112C30.3838 17.8075 31.035 18.43 31.8288 18.7587C32.5913 19.0738 33.4625 19.0875 34.3062 19.1C35.1812 19.1125 36.0975 19.1262 36.485 19.515C36.8725 19.9037 36.8875 20.8138 36.9 21.6938C36.9125 22.5375 36.9262 23.4088 37.2412 24.1713C37.57 24.965 38.19 25.6112 38.7887 26.2362C39.3875 26.8612 40 27.5 40 28C40 28.5 39.385 29.1438 38.7887 29.7638ZM33.7075 24.2925C33.8005 24.3854 33.8742 24.4957 33.9246 24.6171C33.9749 24.7385 34.0008 24.8686 34.0008 25C34.0008 25.1314 33.9749 25.2615 33.9246 25.3829C33.8742 25.5043 33.8005 25.6146 33.7075 25.7075L26.7075 32.7075C26.6146 32.8005 26.5043 32.8742 26.3829 32.9246C26.2615 32.9749 26.1314 33.0008 26 33.0008C25.8686 33.0008 25.7385 32.9749 25.6171 32.9246C25.4957 32.8742 25.3854 32.8005 25.2925 32.7075L22.2925 29.7075C22.1049 29.5199 21.9994 29.2654 21.9994 29C21.9994 28.7346 22.1049 28.4801 22.2925 28.2925C22.4801 28.1049 22.7346 27.9994 23 27.9994C23.2654 27.9994 23.5199 28.1049 23.7075 28.2925L26 30.5863L32.2925 24.2925C32.3854 24.1995 32.4957 24.1258 32.6171 24.0754C32.7385 24.0251 32.8686 23.9992 33 23.9992C33.1314 23.9992 33.2615 24.0251 33.3829 24.0754C33.5043 24.1258 33.6146 24.1995 33.7075 24.2925Z" fill="white"/>
</svg>
